<svg width="200" height="200" viewBox="0 0 200 200" xmlns="http://www.w3.org/2000/svg">
  <!-- Cupcake Wrapper -->
  <path d="M60,120 L50,180 L150,180 L140,120 Z" fill="#D2B48C" stroke="#8B4513" stroke-width="2"/>
  <line x1="75" y1="120" x2="70" y2="180" stroke="#8B4513" stroke-width="2"/>
  <line x1="90" y1="120" x2="90" y2="180" stroke="#8B4513" stroke-width="2"/>
  <line x1="110" y1="120" x2="110" y2="180" stroke="#8B4513" stroke-width="2"/>
  <line x1="125" y1="120" x2="130" y2="180" stroke="#8B4513" stroke-width="2"/>
  
  <!-- Muffin Top -->
  <path d="M50,120 Q40,90 70,80 Q80,60 120,60 Q160,60 170,80 Q160,90 150,120 Z" fill="#F4C2C2" />
  
  <!-- Icing Swirls -->
  <path d="M65,90 Q100,20 135,90" fill="#FFC0CB" stroke="#FF69B4" stroke-width="2" stroke-linecap="round"/>
  
  <!-- Heart Topper -->
  <path d="M100,50 C80,30 50,60 100,90 C150,60 120,30 100,50 Z" fill="#FF0000" stroke="#8B0000" stroke-width="2"/>
</svg>
