<svg width="200" height="200" viewBox="0 0 200 200" xmlns="http://www.w3.org/2000/svg">
  <!-- Clouds -->
  <path d="M30,150 Q40,120 70,130 Q90,110 120,130 Q140,120 160,140 Q180,150 170,170 Q160,190 30,190 Z" fill="#ADD8E6" opacity="0.8"/>
  
  <!-- Rainbow Arcs -->
  <path d="M40,130 A80,80 0 0,1 160,130" stroke="#FF0000" stroke-width="10" fill="none"/>
  <path d="M50,130 A70,70 0 0,1 150,130" stroke="#FFA500" stroke-width="10" fill="none"/>
  <path d="M60,130 A60,60 0 0,1 140,130" stroke="#FFFF00" stroke-width="10" fill="none"/>
  <path d="M70,130 A50,50 0 0,1 130,130" stroke="#008000" stroke-width="10" fill="none"/>
  <path d="M80,130 A40,40 0 0,1 120,130" stroke="#0000FF" stroke-width="10" fill="none"/>
  <path d="M90,130 A30,30 0 0,1 110,130" stroke="#4B0082" stroke-width="10" fill="none"/>
  
  <!-- Speed Lines -->
  <line x1="20" y1="100" x2="50" y2="100" stroke="#ADD8E6" stroke-width="3" stroke-dasharray="5,5"/>
  <line x1="150" y1="100" x2="180" y2="100" stroke="#ADD8E6" stroke-width="3" stroke-dasharray="5,5"/>
</svg>
